<svg width="37" height="37" viewBox="0 0 37 37" fill="none" xmlns="http://www.w3.org/2000/svg">
<path d="M10.4063 3.85413C11.2668 3.85413 12.1188 4.0236 12.9137 4.35287C13.7086 4.68215 14.4309 5.16477 15.0394 5.77319C15.6478 6.3816 16.1304 7.1039 16.4597 7.89884C16.7889 8.69377 16.9584 9.54578 16.9584 10.4062V16.9583H10.4063C8.66861 16.9583 7.00207 16.268 5.77331 15.0392C4.54456 13.8105 3.85425 12.1439 3.85425 10.4062C3.85425 8.66849 4.54456 7.00194 5.77331 5.77319C7.00207 4.54443 8.66861 3.85413 10.4063 3.85413ZM13.8751 13.875V10.4062C13.8751 9.72016 13.6716 9.04951 13.2905 8.47907C12.9093 7.90864 12.3676 7.46404 11.7338 7.2015C11.0999 6.93896 10.4025 6.87027 9.72961 7.00411C9.05674 7.13795 8.43867 7.46832 7.95356 7.95343C7.46844 8.43855 7.13808 9.05662 7.00424 9.72949C6.87039 10.4024 6.93909 11.0998 7.20163 11.7336C7.46417 12.3675 7.90877 12.9092 8.4792 13.2904C9.04963 13.6715 9.72028 13.875 10.4063 13.875H13.8751ZM10.4063 20.0416H16.9584V26.5937C16.9584 27.8896 16.5741 29.1564 15.8542 30.2339C15.1342 31.3113 14.1109 32.1511 12.9137 32.647C11.7165 33.143 10.3991 33.2727 9.12809 33.0199C7.85711 32.7671 6.68964 32.1431 5.77331 31.2267C4.85699 30.3104 4.23296 29.1429 3.98015 27.872C3.72733 26.601 3.85709 25.2836 4.353 24.0863C4.84891 22.8891 5.68871 21.8658 6.76619 21.1459C7.84368 20.4259 9.11045 20.0416 10.4063 20.0416ZM10.4063 23.125C9.72028 23.125 9.04963 23.3284 8.4792 23.7095C7.90877 24.0907 7.46417 24.6324 7.20163 25.2663C6.93909 25.9001 6.87039 26.5976 7.00424 27.2704C7.13808 27.9433 7.46844 28.5614 7.95356 29.0465C8.43867 29.5316 9.05674 29.862 9.72961 29.9958C10.4025 30.1296 11.0999 30.061 11.7338 29.7984C12.3676 29.5359 12.9093 29.0913 13.2905 28.5208C13.6716 27.9504 13.8751 27.2798 13.8751 26.5937V23.125H10.4063ZM26.5938 3.85413C28.3316 3.85413 29.9981 4.54443 31.2269 5.77319C32.4556 7.00194 33.1459 8.66849 33.1459 10.4062C33.1459 12.1439 32.4556 13.8105 31.2269 15.0392C29.9981 16.268 28.3316 16.9583 26.5938 16.9583H20.0417V10.4062C20.0417 8.66849 20.7321 7.00194 21.9608 5.77319C23.1896 4.54443 24.8561 3.85413 26.5938 3.85413ZM26.5938 13.875C27.2799 13.875 27.9505 13.6715 28.521 13.2904C29.0914 12.9092 29.536 12.3675 29.7985 11.7336C30.0611 11.0998 30.1298 10.4024 29.9959 9.72949C29.8621 9.05662 29.5317 8.43855 29.0466 7.95343C28.5615 7.46832 27.9434 7.13795 27.2706 7.00411C26.5977 6.87027 25.9002 6.93896 25.2664 7.2015C24.6326 7.46404 24.0908 7.90864 23.7097 8.47907C23.3285 9.04951 23.1251 9.72016 23.1251 10.4062V13.875H26.5938ZM20.0417 20.0416H26.5938C27.8897 20.0416 29.1565 20.4259 30.234 21.1459C31.3115 21.8658 32.1513 22.8891 32.6472 24.0863C33.1431 25.2836 33.2728 26.601 33.02 27.872C32.7672 29.1429 32.1432 30.3104 31.2269 31.2267C30.3105 32.1431 29.1431 32.7671 27.8721 33.0199C26.6011 33.2727 25.2837 33.143 24.0865 32.647C22.8892 32.1511 21.8659 31.3113 21.146 30.2339C20.426 29.1564 20.0417 27.8896 20.0417 26.5937V20.0416ZM23.1251 23.125V26.5937C23.1251 27.2798 23.3285 27.9504 23.7097 28.5208C24.0908 29.0913 24.6326 29.5359 25.2664 29.7984C25.9002 30.061 26.5977 30.1296 27.2706 29.9958C27.9434 29.862 28.5615 29.5316 29.0466 29.0465C29.5317 28.5614 29.8621 27.9433 29.9959 27.2704C30.1298 26.5976 30.0611 25.9001 29.7985 25.2663C29.536 24.6324 29.0914 24.0907 28.521 23.7095C27.9505 23.3284 27.2799 23.125 26.5938 23.125H23.1251Z" fill="#C554B7"/>
</svg>
