<svg width="30" height="30" viewBox="0 0 30 30" fill="none"
    xmlns="http://www.w3.org/2000/svg">
    <g clip-path="url(#clip0_590_350)">
        <path d="M28.875 0H19.875C19.257 0 18.3915 0.448125 17.955 0.99375L6.79654 14.9419C6.58614 15.2061 6.46802 15.5638 6.46802 15.9366C6.46802 16.3094 6.58614 16.667 6.79654 16.9313L16.455 29.0044C16.6664 29.2674 16.9525 29.415 17.2508 29.415C17.549 29.415 17.8352 29.2674 18.0465 29.0044L29.205 15.0563C29.643 14.5087 30 13.4288 30 12.6563V1.40625C29.9992 1.03359 29.8805 0.676483 29.6697 0.412975C29.4589 0.149466 29.1732 0.000989796 28.875 0ZM23.25 11.25C22.9545 11.2499 22.6618 11.177 22.3888 11.0355C22.1157 10.894 21.8677 10.6866 21.6587 10.4253C21.4498 10.164 21.2841 9.85374 21.1711 9.51235C21.0581 9.17096 20.9999 8.80509 21 8.43563C21.0001 8.06616 21.0585 7.70034 21.1717 7.35904C21.2849 7.01775 21.4507 6.70766 21.6598 6.4465C21.8689 6.18533 22.117 5.9782 22.3902 5.83693C22.6633 5.69565 22.956 5.623 23.2515 5.62313C23.8485 5.62337 24.4209 5.92003 24.8428 6.44783C25.2648 6.97562 25.5017 7.69133 25.5015 8.4375C25.5013 9.18367 25.264 9.89918 24.8418 10.4266C24.4195 10.9541 23.847 11.2502 23.25 11.25Z" fill="#C554B7"/>
        <path d="M3.00004 15.9375L15.75 0H13.875C13.257 0 12.3915 0.448125 11.955 0.99375L0.796539 14.9419C0.586137 15.2061 0.468018 15.5638 0.468018 15.9366C0.468018 16.3094 0.586137 16.667 0.796539 16.9313L10.455 29.0044C10.6664 29.2674 10.9525 29.415 11.2508 29.415C11.549 29.415 11.8352 29.2674 12.0465 29.0044L12.7515 28.1231L3.00154 15.9356L3.00004 15.9375Z" fill="#C554B7"/>
    </g>
    <defs>
        <clipPath id="clip0_590_350">
            <rect width="30" height="30" fill="white"/>
        </clipPath>
    </defs>
</svg>
