<svg width="200" height="200" viewBox="0 0 200 200" fill="none" xmlns="http://www.w3.org/2000/svg">
<path d="M72.4997 144.166C70.9719 142.639 70.208 140.694 70.208 138.333C70.208 135.972 70.9719 134.028 72.4997 132.5L105 99.9998L72.4997 67.4998C70.9719 65.9721 70.208 64.0276 70.208 61.6665C70.208 59.3054 70.9719 57.3609 72.4997 55.8332C74.0274 54.3054 75.9719 53.5415 78.333 53.5415C80.6941 53.5415 82.6386 54.3054 84.1663 55.8332L122.5 94.1665C123.333 94.9998 123.925 95.9026 124.275 96.8748C124.625 97.8471 124.797 98.8887 124.791 99.9998C124.791 101.111 124.616 102.153 124.266 103.125C123.916 104.097 123.327 105 122.5 105.833L84.1663 144.166C82.6386 145.694 80.6941 146.458 78.333 146.458C75.9719 146.458 74.0274 145.694 72.4997 144.166Z" fill="#9747FF"/>
</svg>
